<?xml version="1.0" standalone="no"?>
<!DOCTYPE svg PUBLIC "-//W3C//DTD SVG 20010904//EN"
 "http://www.w3.org/TR/2001/REC-SVG-20010904/DTD/svg10.dtd">
<svg version="1.0" xmlns="http://www.w3.org/2000/svg"
 width="260.000000pt" height="260.000000pt" viewBox="0 0 260.000000 260.000000"
 preserveAspectRatio="xMidYMid meet">
<metadata>
Created by potrace 1.14, written by Peter Selinger 2001-2017
</metadata>
<g transform="translate(0.000000,260.000000) scale(0.100000,-0.100000)"
fill="#000000" stroke="none">
<path d="M626 2369 c-64 -15 -155 -70 -198 -118 -204 -232 -107 -610 180 -698
71 -21 210 -19 285 6 166 56 273 214 271 401 -2 248 -177 422 -422 419 -43 -1
-94 -5 -116 -10z m232 -191 c77 -37 121 -117 121 -223 1 -97 -44 -176 -121
-216 -89 -46 -198 -33 -272 32 -55 49 -81 112 -80 195 2 185 182 294 352 212z"/>
<path d="M1632 2063 c3 -297 4 -310 26 -354 30 -61 79 -110 138 -140 40 -19
65 -24 135 -24 76 0 92 3 144 30 37 19 72 46 92 73 58 76 63 113 63 434 l0
288 -85 0 -85 0 0 -282 c0 -311 -1 -316 -60 -356 -65 -44 -162 -13 -187 59 -8
23 -12 122 -12 307 l-1 272 -86 0 -85 0 3 -307z"/>
<path d="M470 650 l0 -420 85 0 85 0 2 214 3 214 200 -224 c169 -188 204 -224
228 -224 l27 0 -2 418 -3 417 -85 0 -85 0 -3 -223 -2 -223 -203 236 c-153 178
-207 235 -224 235 l-23 0 0 -420z"/>
<path d="M1920 640 l0 -410 85 0 85 0 0 410 0 410 -85 0 -85 0 0 -410z"/>
</g>
</svg>
