<?xml version="1.0" standalone="no"?>
<!DOCTYPE svg PUBLIC "-//W3C//DTD SVG 20010904//EN"
 "http://www.w3.org/TR/2001/REC-SVG-20010904/DTD/svg10.dtd">
<svg version="1.0" xmlns="http://www.w3.org/2000/svg"
 width="260.000000pt" height="260.000000pt" viewBox="0 0 260.000000 260.000000"
 preserveAspectRatio="xMidYMid meet">
<metadata>
Created by potrace 1.14, written by Peter Selinger 2001-2017
</metadata>
<g transform="translate(0.000000,260.000000) scale(0.100000,-0.100000)"
fill="#000000" stroke="none">
<path d="M640 2366 c-83 -18 -142 -51 -199 -111 -125 -132 -152 -320 -72 -491
71 -153 219 -233 405 -221 121 8 187 36 267 116 93 93 113 148 114 301 0 109
-2 119 -32 182 -41 87 -101 151 -177 188 -99 49 -196 60 -306 36z m193 -172
c96 -32 167 -156 153 -263 -17 -127 -102 -212 -221 -219 -108 -7 -182 30 -232
116 -24 41 -28 58 -28 127 0 64 5 90 24 128 52 106 181 153 304 111z"/>
<path d="M1640 2360 c0 -3 0 -139 0 -304 1 -277 2 -302 21 -346 44 -103 144
-163 269 -163 122 0 220 58 266 158 23 49 24 57 24 355 l0 305 -80 -3 -80 -4
0 -279 c0 -308 -3 -324 -60 -354 -37 -19 -103 -19 -140 0 -57 30 -60 46 -60
354 l0 279 -80 4 c-44 2 -80 1 -80 -2z"/>
<path d="M470 645 l0 -415 85 0 85 0 2 216 3 217 203 -227 c133 -148 210 -226
222 -226 20 0 20 10 20 415 l0 415 -80 0 -80 0 -2 -227 -3 -227 -204 237
c-158 184 -209 237 -228 237 l-23 0 0 -415z"/>
<path d="M1998 1042 l-78 -3 0 -404 0 -405 85 0 85 0 0 404 c0 223 -3 406 -7
408 -5 2 -43 2 -85 0z"/>
</g>
</svg>
